<svg width="55" height="50" viewBox="0 0 55 50" fill="none" xmlns="http://www.w3.org/2000/svg">
<path d="M45 17H10.3333C8.86053 17 7.66663 18.1939 7.66663 19.6667V46.3333C7.66663 47.8061 8.86053 49 10.3333 49H45C46.4727 49 47.6666 47.8061 47.6666 46.3333V19.6667C47.6666 18.1939 46.4727 17 45 17Z" fill="#6B72EA" stroke="white" stroke-width="1.33333"/>
<path d="M20.3333 27.6667C20.3333 28.7712 19.4379 29.6667 18.3333 29.6667C17.2287 29.6667 16.3333 28.7712 16.3333 27.6667C16.3333 26.5621 17.2287 25.6667 18.3333 25.6667C19.4379 25.6667 20.3333 26.5621 20.3333 27.6667Z" fill="white" stroke="white" stroke-width="1.33333"/>
<path d="M39 27.6667C39 28.7712 38.1046 29.6667 37 29.6667C35.8955 29.6667 35 28.7712 35 27.6667C35 26.5621 35.8955 25.6667 37 25.6667C38.1046 25.6667 39 26.5621 39 27.6667Z" fill="white" stroke="white" stroke-width="1.33333"/>
<path d="M23 40.3333V36.3333H32.3333V40.3333H23ZM33.6666 36.4471C34.4434 36.7217 35 37.4625 35 38.3333C35 39.2042 34.4434 39.945 33.6666 40.2195V36.4471ZM21.6666 40.2195C20.8898 39.945 20.3333 39.2042 20.3333 38.3333C20.3333 37.4625 20.8898 36.7217 21.6666 36.4471V40.2195Z" fill="white" stroke="white" stroke-width="1.33333"/>
<path d="M27.6666 6.33334V17" stroke="white" stroke-width="1.33333" stroke-linecap="round" stroke-linejoin="round"/>
<path d="M1 27.6667V38.3333" stroke="white" stroke-width="1.33333" stroke-linecap="round" stroke-linejoin="round"/>
<path d="M54.3334 27.6667V38.3333" stroke="white" stroke-width="1.33333" stroke-linecap="round" stroke-linejoin="round"/>
<path d="M27.6667 6.33333C29.1394 6.33333 30.3333 5.13943 30.3333 3.66667C30.3333 2.19391 29.1394 1 27.6667 1C26.1939 1 25 2.19391 25 3.66667C25 5.13943 26.1939 6.33333 27.6667 6.33333Z" stroke="white" stroke-width="1.33333"/>
</svg>
