<svg width="41" height="41" viewBox="0 0 41 41" fill="none" xmlns="http://www.w3.org/2000/svg">
<path d="M8.80002 6.77886V3.925C8.80002 2.30957 10.1095 1 11.725 1H37.075C38.6905 1 40 2.30957 40 3.925V29.275C40 30.8905 38.6905 32.2 37.075 32.2H34.167" stroke="white" stroke-width="0.975"/>
<path d="M31.225 6.85001H3.925C2.30957 6.85001 1 8.15957 1 9.77501V37.075C1 38.6904 2.30957 40 3.925 40H31.225C32.8404 40 34.15 38.6904 34.15 37.075V9.77501C34.15 8.15957 32.8404 6.85001 31.225 6.85001Z" fill="#6B72EA" stroke="white" stroke-width="0.975" stroke-linejoin="round"/>
<path d="M15.0784 19.6323L20.2386 14.2605C21.6539 12.8451 23.9799 12.8763 25.4337 14.3302C26.8875 15.784 26.9187 18.1099 25.5033 19.5252L23.641 21.4975" stroke="white" stroke-width="0.975" stroke-linecap="round" stroke-linejoin="round"/>
<path d="M10.2294 25.1285C9.7319 25.6261 8.70308 26.6196 8.70308 26.6196C7.28768 28.0349 7.24926 30.5576 8.70308 32.0114C10.1569 33.4652 12.4828 33.4963 13.8982 32.081L18.9333 27.5098" stroke="white" stroke-width="0.975" stroke-linecap="round" stroke-linejoin="round"/>
<path d="M15.296 24.7202C14.6207 24.0449 14.2524 23.1814 14.1934 22.3084C14.1253 21.302 14.4684 20.283 15.2264 19.5251" stroke="white" stroke-width="0.975" stroke-linecap="round" stroke-linejoin="round"/>
<path d="M18.8633 22.3148C20.3171 23.7686 20.3483 26.0945 18.9329 27.5099" stroke="white" stroke-width="0.975" stroke-linecap="round" stroke-linejoin="round"/>
</svg>
