<svg width="43" height="41" viewBox="0 0 43 41" fill="none" xmlns="http://www.w3.org/2000/svg">
<path d="M1.00722 23.3731C0.907651 24.5679 1.85056 25.5927 3.04953 25.5927H6.97044C8.10232 25.5927 9.01983 24.6752 9.01983 23.5433V3.04939C9.01983 1.91754 8.10232 1 6.97044 1H4.75737C3.6915 1 2.80357 1.81702 2.71504 2.8792L1.00722 23.3731Z" fill="#6B72EA" stroke="#EBEBEB" stroke-width="1.0247" stroke-linecap="round" stroke-linejoin="round"/>
<path d="M15.1681 23.1596C15.1681 24.0159 15.7003 24.7824 16.4749 25.1475C18.1641 25.9438 21.0426 27.546 22.341 29.7115C24.0144 32.5024 24.33 37.5448 24.3813 38.6998C24.3885 38.8615 24.3839 39.0234 24.4061 39.1837C24.6835 41.184 28.5448 38.8473 30.0262 36.3765C30.8302 35.0356 30.9333 33.2739 30.8487 31.8984C30.7582 30.4267 30.3267 29.0051 29.9034 27.5926L29.0015 24.5839H40.1265C41.4856 24.5839 42.4682 23.2853 42.0988 21.9775L36.5958 2.49239C36.3465 1.60959 35.5409 1 34.6236 1H17.2175C16.0856 1 15.1681 1.91754 15.1681 3.04939V23.1596Z" fill="#6B72EA" stroke="#EBEBEB" stroke-width="1.0247" stroke-linecap="round" stroke-linejoin="round"/>
</svg>
